TITLE ""
FILE "LR_black_phrase_S10.mp3" MP3
  TRACK 01 AUDIO
    TITLE "LR_black_phrase_S10_001"
    INDEX 01 00:00:00
  TRACK 02 AUDIO
    TITLE "LR_black_phrase_S10_002"
    INDEX 01 00:00:14
  TRACK 03 AUDIO
    TITLE "LR_black_phrase_S10_003"
    INDEX 01 00:01:53
  TRACK 04 AUDIO
    TITLE "LR_black_phrase_S10_004"
    INDEX 01 00:02:17
  TRACK 05 AUDIO
    TITLE "LR_black_phrase_S10_005"
    INDEX 01 00:05:04
  TRACK 06 AUDIO
    TITLE "LR_black_phrase_S10_006"
    INDEX 01 00:06:03
  TRACK 07 AUDIO
    TITLE "LR_black_phrase_S10_007"
    INDEX 01 00:08:06
  TRACK 08 AUDIO
    TITLE "LR_black_phrase_S10_008"
    INDEX 01 00:08:47
  TRACK 09 AUDIO
    TITLE "LR_black_phrase_S10_009"
    INDEX 01 00:10:60
  TRACK 10 AUDIO
    TITLE "LR_black_phrase_S10_010"
    INDEX 01 00:11:14
  TRACK 11 AUDIO
    TITLE "LR_black_phrase_S10_011"
    INDEX 01 00:13:27
  TRACK 12 AUDIO
    TITLE "LR_black_phrase_S10_012"
    INDEX 01 00:14:32
  TRACK 13 AUDIO
    TITLE "LR_black_phrase_S10_013"
    INDEX 01 00:15:49
  TRACK 14 AUDIO
    TITLE "LR_black_phrase_S10_014"
    INDEX 01 00:16:15
  TRACK 15 AUDIO
    TITLE "LR_black_phrase_S10_015"
    INDEX 01 00:17:64
  TRACK 16 AUDIO
    TITLE "LR_black_phrase_S10_016"
    INDEX 01 00:18:61
  TRACK 17 AUDIO
    TITLE "LR_black_phrase_S10_017"
    INDEX 01 00:21:28
  TRACK 18 AUDIO
    TITLE "LR_black_phrase_S10_018"
    INDEX 01 00:21:67
  TRACK 19 AUDIO
    TITLE "LR_black_phrase_S10_019"
    INDEX 01 00:24:25
  TRACK 20 AUDIO
    TITLE "LR_black_phrase_S10_020"
    INDEX 01 00:24:54
  TRACK 21 AUDIO
    TITLE "LR_black_phrase_S10_021"
    INDEX 01 00:27:11
  TRACK 22 AUDIO
    TITLE "LR_black_phrase_S10_022"
    INDEX 01 00:28:18
  TRACK 23 AUDIO
    TITLE "LR_black_phrase_S10_023"
    INDEX 01 00:29:67
  TRACK 24 AUDIO
    TITLE "LR_black_phrase_S10_024"
    INDEX 01 00:30:25
  TRACK 25 AUDIO
    TITLE "LR_black_phrase_S10_025"
    INDEX 01 00:33:33
  TRACK 26 AUDIO
    TITLE "LR_black_phrase_S10_026"
    INDEX 01 00:34:29
  TRACK 27 AUDIO
    TITLE "LR_black_phrase_S10_027"
    INDEX 01 00:36:55
  TRACK 28 AUDIO
    TITLE "LR_black_phrase_S10_028"
    INDEX 01 00:37:13
  TRACK 29 AUDIO
    TITLE "LR_black_phrase_S10_029"
    INDEX 01 00:39:42
  TRACK 30 AUDIO
    TITLE "LR_black_phrase_S10_030"
    INDEX 01 00:39:59
  TRACK 31 AUDIO
    TITLE "LR_black_phrase_S10_031"
    INDEX 01 00:42:11
  TRACK 32 AUDIO
    TITLE "LR_black_phrase_S10_032"
    INDEX 01 00:43:04
  TRACK 33 AUDIO
    TITLE "LR_black_phrase_S10_033"
    INDEX 01 00:44:27
  TRACK 34 AUDIO
    TITLE "LR_black_phrase_S10_034"
    INDEX 01 00:44:66
  TRACK 35 AUDIO
    TITLE "LR_black_phrase_S10_035"
    INDEX 01 00:48:09
  TRACK 36 AUDIO
    TITLE "LR_black_phrase_S10_036"
    INDEX 01 00:49:07
  TRACK 37 AUDIO
    TITLE "LR_black_phrase_S10_037"
    INDEX 01 00:51:51
  TRACK 38 AUDIO
    TITLE "LR_black_phrase_S10_038"
    INDEX 01 00:52:13
  TRACK 39 AUDIO
    TITLE "LR_black_phrase_S10_039"
    INDEX 01 00:54:39
  TRACK 40 AUDIO
    TITLE "LR_black_phrase_S10_040"
    INDEX 01 00:54:59
  TRACK 41 AUDIO
    TITLE "LR_black_phrase_S10_041"
    INDEX 01 00:57:14
  TRACK 42 AUDIO
    TITLE "LR_black_phrase_S10_042"
    INDEX 01 00:58:16
  TRACK 43 AUDIO
    TITLE "LR_black_phrase_S10_043"
    INDEX 01 00:59:29
  TRACK 44 AUDIO
    TITLE "LR_black_phrase_S10_044"
    INDEX 01 00:59:68
  TRACK 45 AUDIO
    TITLE "LR_black_phrase_S10_045"
    INDEX 01 01:02:39
  TRACK 46 AUDIO
    TITLE "LR_black_phrase_S10_046"
    INDEX 01 01:03:32
  TRACK 47 AUDIO
    TITLE "LR_black_phrase_S10_047"
    INDEX 01 01:05:43
  TRACK 48 AUDIO
    TITLE "LR_black_phrase_S10_048"
    INDEX 01 01:06:07
  TRACK 49 AUDIO
    TITLE "LR_black_phrase_S10_049"
    INDEX 01 01:08:30
  TRACK 50 AUDIO
    TITLE "LR_black_phrase_S10_050"
    INDEX 01 01:08:59
  TRACK 51 AUDIO
    TITLE "LR_black_phrase_S10_051"
    INDEX 01 01:11:08
  TRACK 52 AUDIO
    TITLE "LR_black_phrase_S10_052"
    INDEX 01 01:12:12
  TRACK 53 AUDIO
    TITLE "LR_black_phrase_S10_053"
    INDEX 01 01:13:37
  TRACK 54 AUDIO
    TITLE "LR_black_phrase_S10_054"
    INDEX 01 01:13:74
  TRACK 55 AUDIO
    TITLE "LR_black_phrase_S10_055"
    INDEX 01 01:16:72
  TRACK 56 AUDIO
    TITLE "LR_black_phrase_S10_056"
    INDEX 01 01:17:70
  TRACK 57 AUDIO
    TITLE "LR_black_phrase_S10_057"
    INDEX 01 01:19:73
  TRACK 58 AUDIO
    TITLE "LR_black_phrase_S10_058"
    INDEX 01 01:20:37
  TRACK 59 AUDIO
    TITLE "LR_black_phrase_S10_059"
    INDEX 01 01:22:42
  TRACK 60 AUDIO
    TITLE "LR_black_phrase_S10_060"
    INDEX 01 01:22:73
  TRACK 61 AUDIO
    TITLE "LR_black_phrase_S10_061"
    INDEX 01 01:25:03
  TRACK 62 AUDIO
    TITLE "LR_black_phrase_S10_062"
    INDEX 01 01:26:08
  TRACK 63 AUDIO
    TITLE "LR_black_phrase_S10_063"
    INDEX 01 01:27:13
  TRACK 64 AUDIO
    TITLE "LR_black_phrase_S10_064"
    INDEX 01 01:27:49
  TRACK 65 AUDIO
    TITLE "LR_black_phrase_S10_065"
    INDEX 01 01:30:02
  TRACK 66 AUDIO
    TITLE "LR_black_phrase_S10_066"
    INDEX 01 01:31:03
  TRACK 67 AUDIO
    TITLE "LR_black_phrase_S10_067"
    INDEX 01 01:32:65
  TRACK 68 AUDIO
    TITLE "LR_black_phrase_S10_068"
    INDEX 01 01:33:26
  TRACK 69 AUDIO
    TITLE "LR_black_phrase_S10_069"
    INDEX 01 01:35:01
  TRACK 70 AUDIO
    TITLE "LR_black_phrase_S10_070"
    INDEX 01 01:35:23
  TRACK 71 AUDIO
    TITLE "LR_black_phrase_S10_071"
    INDEX 01 01:36:73
  TRACK 72 AUDIO
    TITLE "LR_black_phrase_S10_072"
    INDEX 01 01:37:70
  TRACK 73 AUDIO
    TITLE "LR_black_phrase_S10_073"
    INDEX 01 01:39:15
  TRACK 74 AUDIO
    TITLE "LR_black_phrase_S10_074"
    INDEX 01 01:39:54
  TRACK 75 AUDIO
    TITLE "LR_black_phrase_S10_075"
    INDEX 01 01:42:44
  TRACK 76 AUDIO
    TITLE "LR_black_phrase_S10_076"
    INDEX 01 01:43:46
  TRACK 77 AUDIO
    TITLE "LR_black_phrase_S10_077"
    INDEX 01 01:46:28
  TRACK 78 AUDIO
    TITLE "LR_black_phrase_S10_078"
    INDEX 01 01:46:62
  TRACK 79 AUDIO
    TITLE "LR_black_phrase_S10_079"
    INDEX 01 01:48:60
  TRACK 80 AUDIO
    TITLE "LR_black_phrase_S10_080"
    INDEX 01 01:49:07
  TRACK 81 AUDIO
    TITLE "LR_black_phrase_S10_081"
    INDEX 01 01:51:06
  TRACK 82 AUDIO
    TITLE "LR_black_phrase_S10_082"
    INDEX 01 01:52:07
  TRACK 83 AUDIO
    TITLE "LR_black_phrase_S10_083"
    INDEX 01 01:53:34
  TRACK 84 AUDIO
    TITLE "LR_black_phrase_S10_084"
    INDEX 01 01:53:75
  TRACK 85 AUDIO
    TITLE "LR_black_phrase_S10_085"
    INDEX 01 01:55:45
  TRACK 86 AUDIO
    TITLE "LR_black_phrase_S10_086"
    INDEX 01 01:56:44
  TRACK 87 AUDIO
    TITLE "LR_black_phrase_S10_087"
    INDEX 01 01:59:07
  TRACK 88 AUDIO
    TITLE "LR_black_phrase_S10_088"
    INDEX 01 01:59:47
  TRACK 89 AUDIO
    TITLE "LR_black_phrase_S10_089"
    INDEX 01 02:02:19
  TRACK 90 AUDIO
    TITLE "LR_black_phrase_S10_090"
    INDEX 01 02:02:49
  TRACK 91 AUDIO
    TITLE "LR_black_phrase_S10_091"
    INDEX 01 02:05:22
  TRACK 92 AUDIO
    TITLE "LR_black_phrase_S10_092"
    INDEX 01 02:06:27
  TRACK 93 AUDIO
    TITLE "LR_black_phrase_S10_093"
    INDEX 01 02:07:46
  TRACK 94 AUDIO
    TITLE "LR_black_phrase_S10_094"
    INDEX 01 02:08:04
  TRACK 95 AUDIO
    TITLE "LR_black_phrase_S10_095"
    INDEX 01 02:12:49
  TRACK 96 AUDIO
    TITLE "LR_black_phrase_S10_096"
    INDEX 01 02:13:49
  TRACK 97 AUDIO
    TITLE "LR_black_phrase_S10_097"
    INDEX 01 02:16:24
  TRACK 98 AUDIO
    TITLE "LR_black_phrase_S10_098"
    INDEX 01 02:16:63
  TRACK 99 AUDIO
    TITLE "LR_black_phrase_S10_099"
    INDEX 01 02:19:24
  TRACK 100 AUDIO
    TITLE "LR_black_phrase_S10_100"
    INDEX 01 02:19:55
  TRACK 101 AUDIO
    TITLE "LR_black_phrase_S10_101"
    INDEX 01 02:22:16
  TRACK 102 AUDIO
    TITLE "LR_black_phrase_S10_102"
    INDEX 01 02:23:28
  TRACK 103 AUDIO
    TITLE "LR_black_phrase_S10_103"
    INDEX 01 02:24:47
  TRACK 104 AUDIO
    TITLE "LR_black_phrase_S10_104"
    INDEX 01 02:25:07
  TRACK 105 AUDIO
    TITLE "LR_black_phrase_S10_105"
    INDEX 01 02:27:63
  TRACK 106 AUDIO
    TITLE "LR_black_phrase_S10_106"
    INDEX 01 02:28:62
  TRACK 107 AUDIO
    TITLE "LR_black_phrase_S10_107"
    INDEX 01 02:31:15
  TRACK 108 AUDIO
    TITLE "LR_black_phrase_S10_108"
    INDEX 01 02:31:51
  TRACK 109 AUDIO
    TITLE "LR_black_phrase_S10_109"
    INDEX 01 02:34:14
  TRACK 110 AUDIO
    TITLE "LR_black_phrase_S10_110"
    INDEX 01 02:34:35
  TRACK 111 AUDIO
    TITLE "LR_black_phrase_S10_111"
    INDEX 01 02:36:73
  TRACK 112 AUDIO
    TITLE "LR_black_phrase_S10_112"
    INDEX 01 02:37:71
  TRACK 113 AUDIO
    TITLE "LR_black_phrase_S10_113"
    INDEX 01 02:39:11
  TRACK 114 AUDIO
    TITLE "LR_black_phrase_S10_114"
    INDEX 01 02:39:44
  TRACK 115 AUDIO
    TITLE "LR_black_phrase_S10_115"
    INDEX 01 02:42:03
  TRACK 116 AUDIO
    TITLE "LR_black_phrase_S10_116"
    INDEX 01 02:43:05
  TRACK 117 AUDIO
    TITLE "LR_black_phrase_S10_117"
    INDEX 01 02:44:73
  TRACK 118 AUDIO
    TITLE "LR_black_phrase_S10_118"
    INDEX 01 02:45:37
  TRACK 119 AUDIO
    TITLE "LR_black_phrase_S10_119"
    INDEX 01 02:47:34
  TRACK 120 AUDIO
    TITLE "LR_black_phrase_S10_120"
    INDEX 01 02:47:57
  TRACK 121 AUDIO
    TITLE "LR_black_phrase_S10_121"
    INDEX 01 02:49:52
  TRACK 122 AUDIO
    TITLE "LR_black_phrase_S10_122"
    INDEX 01 02:50:60
  TRACK 123 AUDIO
    TITLE "LR_black_phrase_S10_123"
    INDEX 01 02:52:04
  TRACK 124 AUDIO
    TITLE "LR_black_phrase_S10_124"
    INDEX 01 02:52:43
  TRACK 125 AUDIO
    TITLE "LR_black_phrase_S10_125"
    INDEX 01 02:53:70
  TRACK 126 AUDIO
    TITLE "LR_black_phrase_S10_126"
    INDEX 01 02:54:67
  TRACK 127 AUDIO
    TITLE "LR_black_phrase_S10_127"
    INDEX 01 02:56:47
  TRACK 128 AUDIO
    TITLE "LR_black_phrase_S10_128"
    INDEX 01 02:57:11
  TRACK 129 AUDIO
    TITLE "LR_black_phrase_S10_129"
    INDEX 01 02:59:25
  TRACK 130 AUDIO
    TITLE "LR_black_phrase_S10_130"
    INDEX 01 02:59:57
  TRACK 131 AUDIO
    TITLE "LR_black_phrase_S10_131"
    INDEX 01 03:01:73
  TRACK 132 AUDIO
    TITLE "LR_black_phrase_S10_132"
    INDEX 01 03:03:05
  TRACK 133 AUDIO
    TITLE "LR_black_phrase_S10_133"
    INDEX 01 03:04:28
  TRACK 134 AUDIO
    TITLE "LR_black_phrase_S10_134"
    INDEX 01 03:04:70
  TRACK 135 AUDIO
    TITLE "LR_black_phrase_S10_135"
    INDEX 01 03:08:63
  TRACK 136 AUDIO
    TITLE "LR_black_phrase_S10_136"
    INDEX 01 03:09:63
  TRACK 137 AUDIO
    TITLE "LR_black_phrase_S10_137"
    INDEX 01 03:12:28
  TRACK 138 AUDIO
    TITLE "LR_black_phrase_S10_138"
    INDEX 01 03:12:69
  TRACK 139 AUDIO
    TITLE "LR_black_phrase_S10_139"
    INDEX 01 03:15:46
  TRACK 140 AUDIO
    TITLE "LR_black_phrase_S10_140"
    INDEX 01 03:15:75
  TRACK 141 AUDIO
    TITLE "LR_black_phrase_S10_141"
    INDEX 01 03:18:50
  TRACK 142 AUDIO
    TITLE "LR_black_phrase_S10_142"
    INDEX 01 03:19:50
  TRACK 143 AUDIO
    TITLE "LR_black_phrase_S10_143"
    INDEX 01 03:20:61
  TRACK 144 AUDIO
    TITLE "LR_black_phrase_S10_144"
    INDEX 01 03:21:21
  TRACK 145 AUDIO
    TITLE "LR_black_phrase_S10_145"
    INDEX 01 03:25:09
  TRACK 146 AUDIO
    TITLE "LR_black_phrase_S10_146"
    INDEX 01 03:26:07
  TRACK 147 AUDIO
    TITLE "LR_black_phrase_S10_147"
    INDEX 01 03:28:33
  TRACK 148 AUDIO
    TITLE "LR_black_phrase_S10_148"
    INDEX 01 03:28:64
  TRACK 149 AUDIO
    TITLE "LR_black_phrase_S10_149"
    INDEX 01 03:30:55
  TRACK 150 AUDIO
    TITLE "LR_black_phrase_S10_150"
    INDEX 01 03:30:75
  TRACK 151 AUDIO
    TITLE "LR_black_phrase_S10_151"
    INDEX 01 03:32:66
  TRACK 152 AUDIO
    TITLE "LR_black_phrase_S10_152"
    INDEX 01 03:33:59
  TRACK 153 AUDIO
    TITLE "LR_black_phrase_S10_153"
    INDEX 01 03:35:03
  TRACK 154 AUDIO
    TITLE "LR_black_phrase_S10_154"
    INDEX 01 03:35:37
  TRACK 155 AUDIO
    TITLE "LR_black_phrase_S10_155"
    INDEX 01 03:38:12
  TRACK 156 AUDIO
    TITLE "LR_black_phrase_S10_156"
    INDEX 01 03:39:09
  TRACK 157 AUDIO
    TITLE "LR_black_phrase_S10_157"
    INDEX 01 03:40:52
  TRACK 158 AUDIO
    TITLE "LR_black_phrase_S10_158"
    INDEX 01 03:41:12
  TRACK 159 AUDIO
    TITLE "LR_black_phrase_S10_159"
    INDEX 01 03:42:66
  TRACK 160 AUDIO
    TITLE "LR_black_phrase_S10_160"
    INDEX 01 03:43:15
  TRACK 161 AUDIO
    TITLE "LR_black_phrase_S10_161"
    INDEX 01 03:44:69
  TRACK 162 AUDIO
    TITLE "LR_black_phrase_S10_162"
    INDEX 01 03:45:72
  TRACK 163 AUDIO
    TITLE "LR_black_phrase_S10_163"
    INDEX 01 03:47:32
  TRACK 164 AUDIO
    TITLE "LR_black_phrase_S10_164"
    INDEX 01 03:47:69
  TRACK 165 AUDIO
    TITLE "LR_black_phrase_S10_165"
    INDEX 01 03:49:41
  TRACK 166 AUDIO
    TITLE "LR_black_phrase_S10_166"
    INDEX 01 03:50:32
  TRACK 167 AUDIO
    TITLE "LR_black_phrase_S10_167"
    INDEX 01 03:52:37
  TRACK 168 AUDIO
    TITLE "LR_black_phrase_S10_168"
    INDEX 01 03:52:74
  TRACK 169 AUDIO
    TITLE "LR_black_phrase_S10_169"
    INDEX 01 03:55:67
  TRACK 170 AUDIO
    TITLE "LR_black_phrase_S10_170"
    INDEX 01 03:56:19
  TRACK 171 AUDIO
    TITLE "LR_black_phrase_S10_171"
    INDEX 01 03:59:12
  TRACK 172 AUDIO
    TITLE "LR_black_phrase_S10_172"
    INDEX 01 04:00:15
  TRACK 173 AUDIO
    TITLE "LR_black_phrase_S10_173"
    INDEX 01 04:01:28
  TRACK 174 AUDIO
    TITLE "LR_black_phrase_S10_174"
    INDEX 01 04:01:68
  TRACK 175 AUDIO
    TITLE "LR_black_phrase_S10_175"
    INDEX 01 04:04:15
  TRACK 176 AUDIO
    TITLE "LR_black_phrase_S10_176"
    INDEX 01 04:05:09
  TRACK 177 AUDIO
    TITLE "LR_black_phrase_S10_177"
    INDEX 01 04:06:67
  TRACK 178 AUDIO
    TITLE "LR_black_phrase_S10_178"
    INDEX 01 04:07:31
  TRACK 179 AUDIO
    TITLE "LR_black_phrase_S10_179"
    INDEX 01 04:09:16
  TRACK 180 AUDIO
    TITLE "LR_black_phrase_S10_180"
    INDEX 01 04:09:47
  TRACK 181 AUDIO
    TITLE "LR_black_phrase_S10_181"
    INDEX 01 04:11:35
  TRACK 182 AUDIO
    TITLE "LR_black_phrase_S10_182"
    INDEX 01 04:12:34
  TRACK 183 AUDIO
    TITLE "LR_black_phrase_S10_183"
    INDEX 01 04:13:33
  TRACK 184 AUDIO
    TITLE "LR_black_phrase_S10_184"
    INDEX 01 04:14:06
  TRACK 185 AUDIO
    TITLE "LR_black_phrase_S10_185"
    INDEX 01 04:17:04
  TRACK 186 AUDIO
    TITLE "LR_black_phrase_S10_186"
    INDEX 01 04:18:01
  TRACK 187 AUDIO
    TITLE "LR_black_phrase_S10_187"
    INDEX 01 04:20:06
  TRACK 188 AUDIO
    TITLE "LR_black_phrase_S10_188"
    INDEX 01 04:20:39
  TRACK 189 AUDIO
    TITLE "LR_black_phrase_S10_189"
    INDEX 01 04:22:03
  TRACK 190 AUDIO
    TITLE "LR_black_phrase_S10_190"
    INDEX 01 04:22:29
  TRACK 191 AUDIO
    TITLE "LR_black_phrase_S10_191"
    INDEX 01 04:23:65
  TRACK 192 AUDIO
    TITLE "LR_black_phrase_S10_192"
    INDEX 01 04:24:67
  TRACK 193 AUDIO
    TITLE "LR_black_phrase_S10_193"
    INDEX 01 04:26:01
  TRACK 194 AUDIO
    TITLE "LR_black_phrase_S10_194"
    INDEX 01 04:26:38
  TRACK 195 AUDIO
    TITLE "LR_black_phrase_S10_195"
    INDEX 01 04:29:13
  TRACK 196 AUDIO
    TITLE "LR_black_phrase_S10_196"
    INDEX 01 04:30:10
  TRACK 197 AUDIO
    TITLE "LR_black_phrase_S10_197"
    INDEX 01 04:32:35
  TRACK 198 AUDIO
    TITLE "LR_black_phrase_S10_198"
    INDEX 01 04:32:70
  TRACK 199 AUDIO
    TITLE "LR_black_phrase_S10_199"
    INDEX 01 04:35:23
  TRACK 200 AUDIO
    TITLE "LR_black_phrase_S10_200"
    INDEX 01 04:35:47
  TRACK 201 AUDIO
    TITLE "LR_black_phrase_S10_201"
    INDEX 01 04:38:02
